{
  "accessors": [
    {
      "bufferView": 2,
      "componentType": 5126,
      "count": 1218,
      "max": [
        0.875,
        0.20000003278255463,
        0.0
      ],
      "min": [
        -0.0,
        1.4901161193847656e-08,
        -2.625
      ],
      "type": "VEC3"
    },
    {
      "bufferView": 2,
      "byteOffset": 14616,
      "componentType": 5126,
      "count": 1218,
      "max": [
        0.999851405620575,
        1.0,
        0.9998515248298645
      ],
      "min": [
        -0.9998515248298645,
        -1.0,
        -0.999851405620575
      ],
      "type": "VEC3"
    },
    {
      "bufferView": 1,
      "componentType": 5126,
      "count": 1218,
      "max": [
        0.7916478514671326,
        0.9994999766349792
      ],
      "min": [
        0.3979075253009796,
        0.6057596206665039
      ],
      "type": "VEC2"
    },
    {
      "bufferView": 0,
      "componentType": 5125,
      "count": 6516,
      "type": "SCALAR"
    },
    {
      "bufferView": 2,
      "byteOffset": 29232,
      "componentType": 5126,
      "count": 1218,
      "max": [
        1.75,
        0.6000000238418579,
        0.15000000596046448
      ],
      "min": [
        -0.0,
        0.0,
        0.0
      ],
      "type": "VEC3"
    },
    {
      "bufferView": 2,
      "byteOffset": 43848,
      "componentType": 5126,
      "count": 1218,
      "max": [
        0.9998508095741272,
        0.9999972581863403,
        0.9998515248298645
      ],
      "min": [
        -0.9998508095741272,
        -0.9999972581863403,
        -0.9998514652252197
      ],
      "type": "VEC3"
    },
    {
      "bufferView": 1,
      "byteOffset": 9744,
      "componentType": 5126,
      "count": 1218,
      "max": [
        0.7916478514671326,
        0.6047596335411072
      ],
      "min": [
        0.5259314775466919,
        0.33904320001602173
      ],
      "type": "VEC2"
    },
    {
      "bufferView": 0,
      "byteOffset": 26064,
      "componentType": 5125,
      "count": 6516,
      "type": "SCALAR"
    },
    {
      "bufferView": 2,
      "byteOffset": 58464,
      "componentType": 5126,
      "count": 122,
      "max": [
        0.03480827063322067,
        0.0,
        0.03500000014901161
      ],
      "min": [
        -0.034808266907930374,
        -0.05000000447034836,
        -0.03500000014901161
      ],
      "type": "VEC3"
    },
    {
      "bufferView": 2,
      "byteOffset": 59928,
      "componentType": 5126,
      "count": 122,
      "max": [
        0.9975720643997192,
        1.0,
        1.0
      ],
      "min": [
        -0.9975720643997192,
        -1.0,
        -0.9993869066238403
      ],
      "type": "VEC3"
    },
    {
      "bufferView": 1,
      "byteOffset": 19488,
      "componentType": 5126,
      "count": 122,
      "max": [
        0.33283334970474243,
        0.9994999766349792
      ],
      "min": [
        0.0005000000237487257,
        0.6671666502952576
      ],
      "type": "VEC2"
    },
    {
      "bufferView": 0,
      "byteOffset": 52128,
      "componentType": 5125,
      "count": 348,
      "type": "SCALAR"
    },
    {
      "bufferView": 2,
      "byteOffset": 61392,
      "componentType": 5126,
      "count": 122,
      "max": [
        0.03480827063322067,
        0.0,
        0.03500000014901161
      ],
      "min": [
        -0.034808266907930374,
        -0.05000000447034836,
        -0.03500000014901161
      ],
      "type": "VEC3"
    },
    {
      "bufferView": 2,
      "byteOffset": 62856,
      "componentType": 5126,
      "count": 122,
      "max": [
        0.9975720643997192,
        1.0,
        1.0
      ],
      "min": [
        -0.9975720643997192,
        -1.0,
        -0.9993869066238403
      ],
      "type": "VEC3"
    },
    {
      "bufferView": 1,
      "byteOffset": 20464,
      "componentType": 5126,
      "count": 122,
      "max": [
        0.6661666631698608,
        0.9994999766349792
      ],
      "min": [
        0.33383333683013916,
        0.6671666502952576
      ],
      "type": "VEC2"
    },
    {
      "bufferView": 0,
      "byteOffset": 53520,
      "componentType": 5125,
      "count": 348,
      "type": "SCALAR"
    },
    {
      "bufferView": 2,
      "byteOffset": 64320,
      "componentType": 5126,
      "count": 1218,
      "max": [
        0.07500000298023224,
        0.6000000238418579,
        0.0
      ],
      "min": [
        -0.07500000298023224,
        0.0,
        -2.9750001430511475
      ],
      "type": "VEC3"
    },
    {
      "bufferView": 2,
      "byteOffset": 78936,
      "componentType": 5126,
      "count": 1218,
      "max": [
        0.9998515248298645,
        0.9999993443489075,
        0.9998508095741272
      ],
      "min": [
        -0.9998515248298645,
        -0.9999993443489075,
        -0.9998513460159302
      ],
      "type": "VEC3"
    },
    {
      "bufferView": 1,
      "byteOffset": 21440,
      "componentType": 5126,
      "count": 1218,
      "max": [
        0.3969075381755829,
        0.9994999766349792
      ],
      "min": [
        0.0005000000237487257,
        0.6030924320220947
      ],
      "type": "VEC2"
    },
    {
      "bufferView": 0,
      "byteOffset": 54912,
      "componentType": 5125,
      "count": 6516,
      "type": "SCALAR"
    },
    {
      "bufferView": 2,
      "byteOffset": 93552,
      "componentType": 5126,
      "count": 122,
      "max": [
        0.03480827063322067,
        0.0,
        0.03500000014901161
      ],
      "min": [
        -0.034808266907930374,
        -0.05000000447034836,
        -0.03500000014901161
      ],
      "type": "VEC3"
    },
    {
      "bufferView": 2,
      "byteOffset": 95016,
      "componentType": 5126,
      "count": 122,
      "max": [
        0.9975720643997192,
        1.0,
        1.0
      ],
      "min": [
        -0.9975720643997192,
        -1.0,
        -0.9993869066238403
      ],
      "type": "VEC3"
    },
    {
      "bufferView": 1,
      "byteOffset": 31184,
      "componentType": 5126,
      "count": 122,
      "max": [
        0.6661666631698608,
        0.6661666631698608
      ],
      "min": [
        0.33383333683013916,
        0.33383333683013916
      ],
      "type": "VEC2"
    },
    {
      "bufferView": 0,
      "byteOffset": 80976,
      "componentType": 5125,
      "count": 348,
      "type": "SCALAR"
    },
    {
      "bufferView": 2,
      "byteOffset": 96480,
      "componentType": 5126,
      "count": 122,
      "max": [
        0.03480827063322067,
        0.0,
        0.03500000014901161
      ],
      "min": [
        -0.034808266907930374,
        -0.05000000447034836,
        -0.03500000014901161
      ],
      "type": "VEC3"
    },
    {
      "bufferView": 2,
      "byteOffset": 97944,
      "componentType": 5126,
      "count": 122,
      "max": [
        0.9975720643997192,
        1.0,
        1.0
      ],
      "min": [
        -0.9975720643997192,
        -1.0,
        -0.9993869066238403
      ],
      "type": "VEC3"
    },
    {
      "bufferView": 1,
      "byteOffset": 32160,
      "componentType": 5126,
      "count": 122,
      "max": [
        0.33283334970474243,
        0.6661666631698608
      ],
      "min": [
        0.0005000000237487257,
        0.33383333683013916
      ],
      "type": "VEC2"
    },
    {
      "bufferView": 0,
      "byteOffset": 82368,
      "componentType": 5125,
      "count": 348,
      "type": "SCALAR"
    },
    {
      "bufferView": 2,
      "byteOffset": 99408,
      "componentType": 5126,
      "count": 1218,
      "max": [
        0.875,
        0.6000000238418579,
        0.0
      ],
      "min": [
        -0.0,
        0.0,
        -0.20000001788139343
      ],
      "type": "VEC3"
    },
    {
      "bufferView": 2,
      "byteOffset": 114024,
      "componentType": 5126,
      "count": 1218,
      "max": [
        0.9998511672019958,
        0.9999990463256836,
        0.9998515248298645
      ],
      "min": [
        -0.9998512864112854,
        -0.9999990463256836,
        -0.9998515248298645
      ],
      "type": "VEC3"
    },
    {
      "bufferView": 1,
      "byteOffset": 33136,
      "componentType": 5126,
      "count": 1218,
      "max": [
        0.9994999766349792,
        0.37613028287887573
      ],
      "min": [
        0.8217999935150146,
        0.19843029975891113
      ],
      "type": "VEC2"
    },
    {
      "bufferView": 0,
      "byteOffset": 83760,
      "componentType": 5125,
      "count": 6516,
      "type": "SCALAR"
    },
    {
      "bufferView": 2,
      "byteOffset": 128640,
      "componentType": 5126,
      "count": 122,
      "max": [
        0.03480827063322067,
        0.0,
        0.03500000014901161
      ],
      "min": [
        -0.034808266907930374,
        -0.05000000447034836,
        -0.03500000014901161
      ],
      "type": "VEC3"
    },
    {
      "bufferView": 2,
      "byteOffset": 130104,
      "componentType": 5126,
      "count": 122,
      "max": [
        0.9975720643997192,
        1.0,
        1.0
      ],
      "min": [
        -0.9975720643997192,
        -1.0,
        -0.9993869066238403
      ],
      "type": "VEC3"
    },
    {
      "bufferView": 1,
      "byteOffset": 42880,
      "componentType": 5126,
      "count": 122,
      "max": [
        0.9994999766349792,
        0.9994999766349792
      ],
      "min": [
        0.6671667098999023,
        0.6671666502952576
      ],
      "type": "VEC2"
    },
    {
      "bufferView": 0,
      "byteOffset": 109824,
      "componentType": 5125,
      "count": 348,
      "type": "SCALAR"
    },
    {
      "bufferView": 2,
      "byteOffset": 131568,
      "componentType": 5126,
      "count": 122,
      "max": [
        0.03480827063322067,
        0.0,
        0.03500000014901161
      ],
      "min": [
        -0.034808266907930374,
        -0.05000000447034836,
        -0.03500000014901161
      ],
      "type": "VEC3"
    },
    {
      "bufferView": 2,
      "byteOffset": 133032,
      "componentType": 5126,
      "count": 122,
      "max": [
        0.9975720643997192,
        1.0,
        1.0
      ],
      "min": [
        -0.9975720643997192,
        -1.0,
        -0.9993869066238403
      ],
      "type": "VEC3"
    },
    {
      "bufferView": 1,
      "byteOffset": 43856,
      "componentType": 5126,
      "count": 122,
      "max": [
        0.9994999766349792,
        0.6661666631698608
      ],
      "min": [
        0.6671667098999023,
        0.33383333683013916
      ],
      "type": "VEC2"
    },
    {
      "bufferView": 0,
      "byteOffset": 111216,
      "componentType": 5125,
      "count": 348,
      "type": "SCALAR"
    },
    {
      "bufferView": 2,
      "byteOffset": 134496,
      "componentType": 5126,
      "count": 1218,
      "max": [
        0.2787291705608368,
        0.30000001192092896,
        0.125
      ],
      "min": [
        -0.21700000762939453,
        0.0,
        -0.125
      ],
      "type": "VEC3"
    },
    {
      "bufferView": 2,
      "byteOffset": 149112,
      "componentType": 5126,
      "count": 1218,
      "max": [
        0.9995191097259521,
        0.9999754428863525,
        0.99990314245224
      ],
      "min": [
        -0.999286949634552,
        -0.9999759197235107,
        -0.9999570846557617
      ],
      "type": "VEC3"
    },
    {
      "bufferView": 1,
      "byteOffset": 44832,
      "componentType": 5126,
      "count": 1218,
      "max": [
        1.0,
        1.0
      ],
      "min": [
        0.0,
        0.0
      ],
      "type": "VEC2"
    },
    {
      "bufferView": 0,
      "byteOffset": 112608,
      "componentType": 5125,
      "count": 6516,
      "type": "SCALAR"
    },
    {
      "bufferView": 2,
      "byteOffset": 163728,
      "componentType": 5126,
      "count": 1218,
      "max": [
        0.08986286073923111,
        0.5249999761581421,
        -0.00033333193277940154
      ],
      "min": [
        -0.08986286073923111,
        0.0,
        -0.874666690826416
      ],
      "type": "VEC3"
    },
    {
      "bufferView": 2,
      "byteOffset": 178344,
      "componentType": 5126,
      "count": 1218,
      "max": [
        0.9999046921730042,
        0.9999996423721313,
        0.9999595880508423
      ],
      "min": [
        -0.9999046921730042,
        -0.9999995827674866,
        -0.999958336353302
      ],
      "type": "VEC3"
    },
    {
      "bufferView": 1,
      "byteOffset": 54576,
      "componentType": 5126,
      "count": 1218,
      "max": [
        0.9994999766349792,
        0.19743025302886963
      ],
      "min": [
        0.8320356011390686,
        0.029965877532958984
      ],
      "type": "VEC2"
    },
    {
      "bufferView": 0,
      "byteOffset": 138672,
      "componentType": 5125,
      "count": 6516,
      "type": "SCALAR"
    },
    {
      "bufferView": 2,
      "byteOffset": 192960,
      "componentType": 5126,
      "count": 1218,
      "max": [
        0.8741250038146973,
        0.20000003278255463,
        -0.0008749961853027344
      ],
      "min": [
        0.0008749961853027344,
        1.4901161193847656e-08,
        -0.8741250038146973
      ],
      "type": "VEC3"
    },
    {
      "bufferView": 2,
      "byteOffset": 207576,
      "componentType": 5126,
      "count": 1218,
      "max": [
        0.9999892711639404,
        1.0,
        0.9999893307685852
      ],
      "min": [
        -0.9999892711639404,
        -1.0,
        -0.9999892711639404
      ],
      "type": "VEC3"
    },
    {
      "bufferView": 1,
      "byteOffset": 64320,
      "componentType": 5126,
      "count": 1218,
      "max": [
        0.9994999766349792,
        0.5837957262992859
      ],
      "min": [
        0.7928346395492554,
        0.37713032960891724
      ],
      "type": "VEC2"
    },
    {
      "bufferView": 0,
      "byteOffset": 164736,
      "componentType": 5125,
      "count": 6516,
      "type": "SCALAR"
    },
    {
      "bufferView": 2,
      "byteOffset": 222192,
      "componentType": 5126,
      "count": 1218,
      "max": [
        0.875,
        0.20000003278255463,
        -0.0008749961853027344
      ],
      "min": [
        -0.0,
        1.4901161193847656e-08,
        -0.8741250038146973
      ],
      "type": "VEC3"
    },
    {
      "bufferView": 2,
      "byteOffset": 236808,
      "componentType": 5126,
      "count": 1218,
      "max": [
        0.9998515248298645,
        1.0,
        0.9999892711639404
      ],
      "min": [
        -0.9998515248298645,
        -1.0,
        -0.9999892115592957
      ],
      "type": "VEC3"
    },
    {
      "bufferView": 1,
      "byteOffset": 74064,
      "componentType": 5126,
      "count": 1218,
      "max": [
        0.3168925940990448,
        0.6020925045013428
      ],
      "min": [
        0.11004046350717545,
        0.3952403664588928
      ],
      "type": "VEC2"
    },
    {
      "bufferView": 0,
      "byteOffset": 190800,
      "componentType": 5125,
      "count": 6516,
      "type": "SCALAR"
    },
    {
      "bufferView": 2,
      "byteOffset": 251424,
      "componentType": 5126,
      "count": 1218,
      "max": [
        0.08986286073923111,
        0.5249999761581421,
        -0.00033333193277940154
      ],
      "min": [
        -0.08986286073923111,
        0.0,
        -0.874666690826416
      ],
      "type": "VEC3"
    },
    {
      "bufferView": 2,
      "byteOffset": 266040,
      "componentType": 5126,
      "count": 1218,
      "max": [
        0.9999046921730042,
        0.9999996423721313,
        0.9999595880508423
      ],
      "min": [
        -0.9999046921730042,
        -0.9999995827674866,
        -0.999958336353302
      ],
      "type": "VEC3"
    },
    {
      "bufferView": 1,
      "byteOffset": 83808,
      "componentType": 5126,
      "count": 1218,
      "max": [
        0.8310355544090271,
        0.20735210180282593
      ],
      "min": [
        0.6635711789131165,
        0.03988766670227051
      ],
      "type": "VEC2"
    },
    {
      "bufferView": 0,
      "byteOffset": 216864,
      "componentType": 5125,
      "count": 6516,
      "type": "SCALAR"
    },
    {
      "bufferView": 2,
      "byteOffset": 280656,
      "componentType": 5126,
      "count": 1218,
      "max": [
        0.875,
        0.20000003278255463,
        -0.0008749961853027344
      ],
      "min": [
        -0.0,
        1.4901161193847656e-08,
        -0.8741250038146973
      ],
      "type": "VEC3"
    },
    {
      "bufferView": 2,
      "byteOffset": 295272,
      "componentType": 5126,
      "count": 1218,
      "max": [
        0.9998515248298645,
        1.0,
        0.9999892711639404
      ],
      "min": [
        -0.9998515248298645,
        -1.0,
        -0.9999892115592957
      ],
      "type": "VEC3"
    },
    {
      "bufferView": 1,
      "byteOffset": 93552,
      "componentType": 5126,
      "count": 1218,
      "max": [
        0.9994999766349792,
        0.9994999766349792
      ],
      "min": [
        0.7926478981971741,
        0.7926478385925293
      ],
      "type": "VEC2"
    },
    {
      "bufferView": 0,
      "byteOffset": 242928,
      "componentType": 5125,
      "count": 6516,
      "type": "SCALAR"
    },
    {
      "bufferView": 2,
      "byteOffset": 309888,
      "componentType": 5126,
      "count": 1218,
      "max": [
        0.08986286073923111,
        0.5249999761581421,
        -0.00033333193277940154
      ],
      "min": [
        -0.08986286073923111,
        0.0,
        -0.874666690826416
      ],
      "type": "VEC3"
    },
    {
      "bufferView": 2,
      "byteOffset": 324504,
      "componentType": 5126,
      "count": 1218,
      "max": [
        0.9999046921730042,
        0.9999996423721313,
        0.9999595880508423
      ],
      "min": [
        -0.9999046921730042,
        -0.9999995827674866,
        -0.999958336353302
      ],
      "type": "VEC3"
    },
    {
      "bufferView": 1,
      "byteOffset": 103296,
      "componentType": 5126,
      "count": 1218,
      "max": [
        0.662571132183075,
        0.20735210180282593
      ],
      "min": [
        0.49510669708251953,
        0.03988766670227051
      ],
      "type": "VEC2"
    },
    {
      "bufferView": 0,
      "byteOffset": 268992,
      "componentType": 5125,
      "count": 6516,
      "type": "SCALAR"
    },
    {
      "bufferView": 2,
      "byteOffset": 339120,
      "componentType": 5126,
      "count": 1218,
      "max": [
        0.875,
        0.20000003278255463,
        0.0
      ],
      "min": [
        -0.0,
        1.4901161193847656e-08,
        -0.875
      ],
      "type": "VEC3"
    },
    {
      "bufferView": 2,
      "byteOffset": 353736,
      "componentType": 5126,
      "count": 1218,
      "max": [
        0.999851405620575,
        1.0,
        0.9998515248298645
      ],
      "min": [
        -0.9998515248298645,
        -1.0,
        -0.999851405620575
      ],
      "type": "VEC3"
    },
    {
      "bufferView": 1,
      "byteOffset": 113040,
      "componentType": 5126,
      "count": 1218,
      "max": [
        0.5249314308166504,
        0.6020925045013428
      ],
      "min": [
        0.31789258122444153,
        0.3950536847114563
      ],
      "type": "VEC2"
    },
    {
      "bufferView": 0,
      "byteOffset": 295056,
      "componentType": 5125,
      "count": 6516,
      "type": "SCALAR"
    },
    {
      "bufferView": 2,
      "byteOffset": 368352,
      "componentType": 5126,
      "count": 1218,
      "max": [
        0.8741250038146973,
        0.20000003278255463,
        0.0
      ],
      "min": [
        0.0008749961853027344,
        1.4901161193847656e-08,
        -0.875
      ],
      "type": "VEC3"
    },
    {
      "bufferView": 2,
      "byteOffset": 382968,
      "componentType": 5126,
      "count": 1218,
      "max": [
        0.9999893307685852,
        1.0,
        0.9998515248298645
      ],
      "min": [
        -0.9999892711639404,
        -1.0,
        -0.9998515248298645
      ],
      "type": "VEC3"
    },
    {
      "bufferView": 1,
      "byteOffset": 122784,
      "componentType": 5126,
      "count": 1218,
      "max": [
        0.9994999766349792,
        0.7916478514671326
      ],
      "min": [
        0.7926478981971741,
        0.5847957134246826
      ],
      "type": "VEC2"
    },
    {
      "bufferView": 0,
      "byteOffset": 321120,
      "componentType": 5125,
      "count": 6516,
      "type": "SCALAR"
    }
  ],
  "asset": {
    "extras": {
      "author": "XPlats (https://sketchfab.com/XPlats)",
      "license": "CC-BY-4.0 (http://creativecommons.org/licenses/by/4.0/)",
      "source": "https://sketchfab.com/3d-models/low-poly-sofa-4556682837d549f9a9569c8bfd9cb98f",
      "title": "Low Poly Sofa"
    },
    "generator": "Sketchfab-15.53.0",
    "version": "2.0"
  },
  "bufferViews": [
    {
      "buffer": 0,
      "byteLength": 347184,
      "name": "floatBufferViews",
      "target": 34963
    },
    {
      "buffer": 0,
      "byteLength": 132528,
      "byteOffset": 347184,
      "byteStride": 8,
      "name": "floatBufferViews",
      "target": 34962
    },
    {
      "buffer": 0,
      "byteLength": 397584,
      "byteOffset": 479712,
      "byteStride": 12,
      "name": "floatBufferViews",
      "target": 34962
    }
  ],
  "buffers": [
    {
      "byteLength": 877296,
      "uri": "scene.bin"
    }
  ],
  "materials": [
    {
      "name": "material_3",
      "pbrMetallicRoughness": {
        "baseColorFactor": [
          0.381326,
          0.381326,
          0.381326,
          1.0
        ],
        "metallicFactor": 0.0,
        "roughnessFactor": 0.5
      }
    },
    {
      "name": "material_0",
      "pbrMetallicRoughness": {
        "baseColorFactor": [
          0.00802319,
          0.287441,
          0.0382044,
          1.0
        ],
        "metallicFactor": 0.0,
        "roughnessFactor": 0.5
      }
    },
    {
      "name": "material_2",
      "pbrMetallicRoughness": {
        "baseColorFactor": [
          0.0159963,
          0.0159963,
          0.0159963,
          1.0
        ],
        "metallicFactor": 0.0,
        "roughnessFactor": 0.5
      }
    }
  ],
  "meshes": [
    {
      "name": "Object_0",
      "primitives": [
        {
          "attributes": {
            "NORMAL": 1,
            "POSITION": 0,
            "TEXCOORD_0": 2
          },
          "indices": 3,
          "material": 0,
          "mode": 4
        }
      ]
    },
    {
      "name": "Object_1",
      "primitives": [
        {
          "attributes": {
            "NORMAL": 5,
            "POSITION": 4,
            "TEXCOORD_0": 6
          },
          "indices": 7,
          "material": 0,
          "mode": 4
        }
      ]
    },
    {
      "name": "Object_2",
      "primitives": [
        {
          "attributes": {
            "NORMAL": 9,
            "POSITION": 8,
            "TEXCOORD_0": 10
          },
          "indices": 11,
          "material": 1,
          "mode": 4
        }
      ]
    },
    {
      "name": "Object_3",
      "primitives": [
        {
          "attributes": {
            "NORMAL": 13,
            "POSITION": 12,
            "TEXCOORD_0": 14
          },
          "indices": 15,
          "material": 1,
          "mode": 4
        }
      ]
    },
    {
      "name": "Object_4",
      "primitives": [
        {
          "attributes": {
            "NORMAL": 17,
            "POSITION": 16,
            "TEXCOORD_0": 18
          },
          "indices": 19,
          "material": 0,
          "mode": 4
        }
      ]
    },
    {
      "name": "Object_5",
      "primitives": [
        {
          "attributes": {
            "NORMAL": 21,
            "POSITION": 20,
            "TEXCOORD_0": 22
          },
          "indices": 23,
          "material": 1,
          "mode": 4
        }
      ]
    },
    {
      "name": "Object_6",
      "primitives": [
        {
          "attributes": {
            "NORMAL": 25,
            "POSITION": 24,
            "TEXCOORD_0": 26
          },
          "indices": 27,
          "material": 1,
          "mode": 4
        }
      ]
    },
    {
      "name": "Object_7",
      "primitives": [
        {
          "attributes": {
            "NORMAL": 29,
            "POSITION": 28,
            "TEXCOORD_0": 30
          },
          "indices": 31,
          "material": 0,
          "mode": 4
        }
      ]
    },
    {
      "name": "Object_8",
      "primitives": [
        {
          "attributes": {
            "NORMAL": 33,
            "POSITION": 32,
            "TEXCOORD_0": 34
          },
          "indices": 35,
          "material": 1,
          "mode": 4
        }
      ]
    },
    {
      "name": "Object_9",
      "primitives": [
        {
          "attributes": {
            "NORMAL": 37,
            "POSITION": 36,
            "TEXCOORD_0": 38
          },
          "indices": 39,
          "material": 1,
          "mode": 4
        }
      ]
    },
    {
      "name": "Object_10",
      "primitives": [
        {
          "attributes": {
            "NORMAL": 41,
            "POSITION": 40,
            "TEXCOORD_0": 42
          },
          "indices": 43,
          "material": 2,
          "mode": 4
        }
      ]
    },
    {
      "name": "Object_11",
      "primitives": [
        {
          "attributes": {
            "NORMAL": 45,
            "POSITION": 44,
            "TEXCOORD_0": 46
          },
          "indices": 47,
          "material": 0,
          "mode": 4
        }
      ]
    },
    {
      "name": "Object_12",
      "primitives": [
        {
          "attributes": {
            "NORMAL": 49,
            "POSITION": 48,
            "TEXCOORD_0": 50
          },
          "indices": 51,
          "material": 0,
          "mode": 4
        }
      ]
    },
    {
      "name": "Object_13",
      "primitives": [
        {
          "attributes": {
            "NORMAL": 53,
            "POSITION": 52,
            "TEXCOORD_0": 54
          },
          "indices": 55,
          "material": 0,
          "mode": 4
        }
      ]
    },
    {
      "name": "Object_14",
      "primitives": [
        {
          "attributes": {
            "NORMAL": 57,
            "POSITION": 56,
            "TEXCOORD_0": 58
          },
          "indices": 59,
          "material": 0,
          "mode": 4
        }
      ]
    },
    {
      "name": "Object_15",
      "primitives": [
        {
          "attributes": {
            "NORMAL": 61,
            "POSITION": 60,
            "TEXCOORD_0": 62
          },
          "indices": 63,
          "material": 0,
          "mode": 4
        }
      ]
    },
    {
      "name": "Object_16",
      "primitives": [
        {
          "attributes": {
            "NORMAL": 65,
            "POSITION": 64,
            "TEXCOORD_0": 66
          },
          "indices": 67,
          "material": 0,
          "mode": 4
        }
      ]
    },
    {
      "name": "Object_17",
      "primitives": [
        {
          "attributes": {
            "NORMAL": 69,
            "POSITION": 68,
            "TEXCOORD_0": 70
          },
          "indices": 71,
          "material": 0,
          "mode": 4
        }
      ]
    },
    {
      "name": "Object_18",
      "primitives": [
        {
          "attributes": {
            "NORMAL": 73,
            "POSITION": 72,
            "TEXCOORD_0": 74
          },
          "indices": 75,
          "material": 0,
          "mode": 4
        }
      ]
    }
  ],
  "nodes": [
    {
      "children": [
        1
      ],
      "matrix": [
        1.0,
        0.0,
        0.0,
        0.0,
        0.0,
        2.220446049250313e-16,
        -1.0,
        0.0,
        0.0,
        1.0,
        2.220446049250313e-16,
        0.0,
        0.0,
        0.0,
        0.0,
        1.0
      ],
      "name": "Sketchfab_model"
    },
    {
      "children": [
        2
      ],
      "name": "root"
    },
    {
      "children": [
        3
      ],
      "matrix": [
        1.0,
        0.0,
        0.0,
        0.0,
        0.0,
        2.220446049250313e-16,
        1.0,
        0.0,
        0.0,
        -1.0,
        2.220446049250313e-16,
        0.0,
        0.0,
        0.0,
        0.0,
        1.0
      ],
      "name": "GLTF_SceneRootNode"
    },
    {
      "children": [
        4,
        6,
        12,
        18,
        26,
        28,
        30,
        32,
        34,
        36,
        38,
        40
      ],
      "matrix": [
        -0.9998263566774439,
        -2.2214414477738483e-09,
        0.018634819374175545,
        0.0,
        2.2214454444031506e-09,
        0.9999999999999716,
        2.3839786497558372e-07,
        0.0,
        -0.018634819374175545,
        2.3839786501282517e-07,
        -0.9998263566774155,
        0.0,
        10.243378639221191,
        1.4901161193847656e-07,
        -0.4801214933395386,
        1.0
      ],
      "name": "Sofas and recliners_0"
    },
    {
      "children": [
        5
      ],
      "matrix": [
        0.0,
        1.081501625829282e-14,
        1.0,
        0.0,
        -7.265229911941771e-15,
        1.0,
        -1.081501625829282e-14,
        0.0,
        -1.0,
        -7.265229911941771e-15,
        0.0,
        0.0,
        -0.4375000596046448,
        0.05000000447034836,
        -0.44000011682510376,
        1.0
      ],
      "name": "Bottom_1"
    },
    {
      "mesh": 0,
      "name": "Object_5"
    },
    {
      "children": [
        7,
        8,
        10
      ],
      "matrix": [
        0.0,
        1.081501625829282e-14,
        1.0,
        0.0,
        -7.265229911941771e-15,
        1.0,
        -1.081501625829282e-14,
        0.0,
        -1.0,
        -7.265229911941771e-15,
        0.0,
        0.0,
        -0.4374998211860657,
        0.05000000074505806,
        -0.4350000321865082,
        1.0
      ],
      "name": "BackRest_2"
    },
    {
      "mesh": 1,
      "name": "Object_7"
    },
    {
      "children": [
        9
      ],
      "matrix": [
        0.9999997615814209,
        1.0127094703764103e-14,
        5.048401118664537e-29,
        0.0,
        -1.0127097118252208e-14,
        1.0,
        9.970087703017362e-15,
        0.0,
        5.048401118664537e-29,
        -9.970085325963218e-15,
        0.9999997615814209,
        0.0,
        1.6500002145767212,
        -1.7844778524853458e-14,
        -2.384185791015625e-07,
        1.0
      ],
      "name": "LegLeftBack_3"
    },
    {
      "mesh": 2,
      "name": "Object_9"
    },
    {
      "children": [
        11
      ],
      "matrix": [
        0.9999997615814209,
        1.0127094703764103e-14,
        5.048401118664537e-29,
        0.0,
        -1.0127097118252208e-14,
        1.0,
        9.970087703017362e-15,
        0.0,
        5.048401118664537e-29,
        -9.970085325963218e-15,
        0.9999997615814209,
        0.0,
        1.6500000953674316,
        3.725266317644582e-09,
        -0.8500005602836609,
        1.0
      ],
      "name": "LegLeftBack_4"
    },
    {
      "mesh": 3,
      "name": "Object_11"
    },
    {
      "children": [
        13,
        14,
        16
      ],
      "matrix": [
        0.0,
        1.081501625829282e-14,
        1.0,
        0.0,
        -7.265229911941771e-15,
        1.0,
        -1.081501625829282e-14,
        0.0,
        -1.0,
        -7.265229911941771e-15,
        0.0,
        0.0,
        -0.5875002145767212,
        0.05000000074505806,
        -0.5099999904632568,
        1.0
      ],
      "name": "BackRest_5"
    },
    {
      "mesh": 4,
      "name": "Object_13"
    },
    {
      "children": [
        15
      ],
      "matrix": [
        0.9999997615814209,
        1.0127094703764103e-14,
        5.048401118664537e-29,
        0.0,
        -1.0127097118252208e-14,
        1.0,
        9.970087703017362e-15,
        0.0,
        5.048401118664537e-29,
        -9.970085325963218e-15,
        0.9999997615814209,
        0.0,
        -7.450580596923828e-09,
        -3.725290742551124e-09,
        -0.07499951869249344,
        1.0
      ],
      "name": "LegLeftBack_6"
    },
    {
      "mesh": 5,
      "name": "Object_15"
    },
    {
      "children": [
        17
      ],
      "matrix": [
        0.9999997615814209,
        1.0127094703764103e-14,
        5.048401118664537e-29,
        0.0,
        -1.0127097118252208e-14,
        1.0,
        9.970087703017362e-15,
        0.0,
        5.048401118664537e-29,
        -9.970085325963218e-15,
        0.9999997615814209,
        0.0,
        0.8500001430511475,
        3.7252745332949644e-09,
        -0.9249999523162842,
        1.0
      ],
      "name": "LegLeftBack_7"
    },
    {
      "mesh": 6,
      "name": "Object_17"
    },
    {
      "children": [
        19,
        20,
        22,
        24
      ],
      "matrix": [
        0.0,
        1.081501625829282e-14,
        1.0,
        0.0,
        -7.265229911941771e-15,
        1.0,
        -1.081501625829282e-14,
        0.0,
        -1.0,
        -7.265229911941771e-15,
        0.0,
        0.0,
        2.1875007152557373,
        0.05000000447034836,
        -0.4320001006126404,
        1.0
      ],
      "name": "ArmRest_8"
    },
    {
      "mesh": 7,
      "name": "Object_19"
    },
    {
      "children": [
        21
      ],
      "matrix": [
        0.9999997615814209,
        1.0127094703764103e-14,
        5.048401118664537e-29,
        0.0,
        -1.0127097118252208e-14,
        1.0,
        9.970087703017362e-15,
        0.0,
        5.048401118664537e-29,
        -9.970085325963218e-15,
        0.9999997615814209,
        0.0,
        -0.07500012964010239,
        3.725290298461914e-09,
        -0.10000015050172806,
        1.0
      ],
      "name": "LegLeftBack_9"
    },
    {
      "mesh": 8,
      "name": "Object_21"
    },
    {
      "children": [
        23
      ],
      "matrix": [
        0.9999997615814209,
        1.0127094703764103e-14,
        5.048401118664537e-29,
        0.0,
        -1.0127097118252208e-14,
        1.0,
        9.970087703017362e-15,
        0.0,
        5.048401118664537e-29,
        -9.970085325963218e-15,
        0.9999997615814209,
        0.0,
        0.7750001549720764,
        3.725281194633112e-09,
        -0.10000002384185791,
        1.0
      ],
      "name": "LegLeftBack_10"
    },
    {
      "mesh": 9,
      "name": "Object_23"
    },
    {
      "children": [
        25
      ],
      "matrix": [
        0.9999997615814209,
        1.0127094703764103e-14,
        5.048401118664537e-29,
        0.0,
        -1.0127097118252208e-14,
        1.0,
        9.970087703017362e-15,
        0.0,
        5.048401118664537e-29,
        -9.970085325963218e-15,
        0.9999997615814209,
        0.0,
        0.5275000333786011,
        0.40000006556510925,
        0.16999930143356323,
        1.0
      ],
      "name": "Cushions_11"
    },
    {
      "mesh": 10,
      "name": "Object_25"
    },
    {
      "children": [
        27
      ],
      "matrix": [
        0.0,
        1.081501625829282e-14,
        1.0,
        0.0,
        -7.265229911941771e-15,
        1.0,
        -1.081501625829282e-14,
        0.0,
        -1.0,
        -7.265229911941771e-15,
        0.0,
        0.0,
        -0.42750003933906555,
        0.4500000476837158,
        -0.3400000333786011,
        1.0
      ],
      "name": "CornerBackPillows_12"
    },
    {
      "mesh": 11,
      "name": "Object_27"
    },
    {
      "children": [
        29
      ],
      "matrix": [
        0.0,
        1.081501625829282e-14,
        1.0,
        0.0,
        -7.265229911941771e-15,
        1.0,
        -1.081501625829282e-14,
        0.0,
        -1.0,
        -7.265229911941771e-15,
        0.0,
        0.0,
        -0.4375000596046448,
        0.25,
        -0.44000011682510376,
        1.0
      ],
      "name": "CornerPillow_13"
    },
    {
      "mesh": 12,
      "name": "Object_29"
    },
    {
      "children": [
        31
      ],
      "matrix": [
        0.0,
        1.081501625829282e-14,
        1.0,
        0.0,
        -7.265229911941771e-15,
        1.0,
        -1.081501625829282e-14,
        0.0,
        -1.0,
        -7.265229911941771e-15,
        0.0,
        0.0,
        0.4375002980232239,
        0.2500000298023224,
        -0.440000057220459,
        1.0
      ],
      "name": "MainExtraPillow_14"
    },
    {
      "mesh": 13,
      "name": "Object_31"
    },
    {
      "children": [
        33
      ],
      "matrix": [
        0.0,
        1.081501625829282e-14,
        1.0,
        0.0,
        -7.265229911941771e-15,
        1.0,
        -1.081501625829282e-14,
        0.0,
        -1.0,
        -7.265229911941771e-15,
        0.0,
        0.0,
        0.4475003778934479,
        0.4500000476837158,
        -0.34000006318092346,
        1.0
      ],
      "name": "BackPillowExtra_15"
    },
    {
      "mesh": 14,
      "name": "Object_33"
    },
    {
      "children": [
        35
      ],
      "matrix": [
        0.0,
        1.081501625829282e-14,
        1.0,
        0.0,
        -7.265229911941771e-15,
        1.0,
        -1.081501625829282e-14,
        0.0,
        -1.0,
        -7.265229911941771e-15,
        0.0,
        0.0,
        1.312499761581421,
        0.2500000298023224,
        -0.44000011682510376,
        1.0
      ],
      "name": "MainExtraPillow_16"
    },
    {
      "mesh": 15,
      "name": "Object_35"
    },
    {
      "children": [
        37
      ],
      "matrix": [
        0.0,
        1.081501625829282e-14,
        1.0,
        0.0,
        -7.265229911941771e-15,
        1.0,
        -1.081501625829282e-14,
        0.0,
        -1.0,
        -7.265229911941771e-15,
        0.0,
        0.0,
        1.3224997520446777,
        0.4500000476837158,
        -0.34000006318092346,
        1.0
      ],
      "name": "BackPillowExtra_17"
    },
    {
      "mesh": 16,
      "name": "Object_37"
    },
    {
      "children": [
        39
      ],
      "matrix": [
        0.0,
        1.081501625829282e-14,
        1.0,
        0.0,
        -7.265229911941771e-15,
        1.0,
        -1.081501625829282e-14,
        0.0,
        -1.0,
        -7.265229911941771e-15,
        0.0,
        0.0,
        -0.43749964237213135,
        0.05000000447034836,
        0.43500006198883057,
        1.0
      ],
      "name": "ExtBottom_18"
    },
    {
      "mesh": 17,
      "name": "Object_39"
    },
    {
      "children": [
        41
      ],
      "matrix": [
        0.0,
        1.081501625829282e-14,
        1.0,
        0.0,
        -7.265229911941771e-15,
        1.0,
        -1.081501625829282e-14,
        0.0,
        -1.0,
        -7.265229911941771e-15,
        0.0,
        0.0,
        -0.43749967217445374,
        0.25,
        0.437049925327301,
        1.0
      ],
      "name": "ExtSittingPillows_19"
    },
    {
      "mesh": 18,
      "name": "Object_41"
    }
  ],
  "scene": 0,
  "scenes": [
    {
      "name": "Sketchfab_Scene",
      "nodes": [
        0
      ]
    }
  ]
}
