{
  "accessors": [
    {
      "bufferView": 2,
      "componentType": 5126,
      "count": 228,
      "max": [
        3.5,
        1.0,
        1.0
      ],
      "min": [
        -3.5,
        -1.0,
        -1.0
      ],
      "type": "VEC3"
    },
    {
      "bufferView": 2,
      "byteOffset": 2736,
      "componentType": 5126,
      "count": 228,
      "max": [
        1.0,
        1.0,
        1.0
      ],
      "min": [
        -1.0,
        -1.0,
        -1.0
      ],
      "type": "VEC3"
    },
    {
      "bufferView": 1,
      "componentType": 5126,
      "count": 228,
      "max": [
        0.875,
        1.0
      ],
      "min": [
        0.125,
        0.0
      ],
      "type": "VEC2"
    },
    {
      "bufferView": 0,
      "componentType": 5125,
      "count": 360,
      "type": "SCALAR"
    },
    {
      "bufferView": 2,
      "byteOffset": 5472,
      "componentType": 5126,
      "count": 224,
      "max": [
        93.42930603027344,
        2.6203041076660156,
        6.580528259277344
      ],
      "min": [
        -0.5800590515136719,
        -1.9080688953399658,
        -6.580528736114502
      ],
      "type": "VEC3"
    },
    {
      "bufferView": 2,
      "byteOffset": 8160,
      "componentType": 5126,
      "count": 224,
      "max": [
        0.9238888621330261,
        0.9238789677619934,
        1.0
      ],
      "min": [
        -0.9238787889480591,
        -0.9238790273666382,
        -1.0
      ],
      "type": "VEC3"
    },
    {
      "bufferView": 1,
      "byteOffset": 1824,
      "componentType": 5126,
      "count": 224,
      "max": [
        0.0,
        0.0
      ],
      "min": [
        0.0,
        0.0
      ],
      "type": "VEC2"
    },
    {
      "bufferView": 0,
      "byteOffset": 1440,
      "componentType": 5125,
      "count": 360,
      "type": "SCALAR"
    },
    {
      "bufferView": 2,
      "byteOffset": 10848,
      "componentType": 5126,
      "count": 128,
      "max": [
        3.252098560333252,
        0.831121563911438,
        -0.9303842186927795
      ],
      "min": [
        -3.252098560333252,
        -0.831121563911438,
        -1.669716477394104
      ],
      "type": "VEC3"
    },
    {
      "bufferView": 2,
      "byteOffset": 12384,
      "componentType": 5126,
      "count": 128,
      "max": [
        0.9234471917152405,
        0.9234660863876343,
        0.2158595621585846
      ],
      "min": [
        -0.9234471917152405,
        -0.9234660863876343,
        -0.03832082450389862
      ],
      "type": "VEC3"
    },
    {
      "bufferView": 1,
      "byteOffset": 3616,
      "componentType": 5126,
      "count": 128,
      "max": [
        0.0,
        0.0
      ],
      "min": [
        0.0,
        0.0
      ],
      "type": "VEC2"
    },
    {
      "bufferView": 0,
      "byteOffset": 2880,
      "componentType": 5125,
      "count": 192,
      "type": "SCALAR"
    }
  ],
  "asset": {
    "extras": {
      "author": "Digitalis Reality (https://sketchfab.com/digitalisreality)",
      "license": "CC-BY-4.0 (http://creativecommons.org/licenses/by/4.0/)",
      "source": "https://sketchfab.com/3d-models/low-poly-style-tv-stand-5f1c9e89090e4c079abddbb850afe159",
      "title": "Low Poly Style TV Stand"
    },
    "generator": "Sketchfab-12.68.0",
    "version": "2.0"
  },
  "bufferViews": [
    {
      "buffer": 0,
      "byteLength": 3648,
      "name": "floatBufferViews",
      "target": 34963
    },
    {
      "buffer": 0,
      "byteLength": 4640,
      "byteOffset": 3648,
      "byteStride": 8,
      "name": "floatBufferViews",
      "target": 34962
    },
    {
      "buffer": 0,
      "byteLength": 13920,
      "byteOffset": 8288,
      "byteStride": 12,
      "name": "floatBufferViews",
      "target": 34962
    }
  ],
  "buffers": [
    {
      "byteLength": 22208,
      "uri": "scene.bin"
    }
  ],
  "materials": [
    {
      "doubleSided": true,
      "name": "wood",
      "pbrMetallicRoughness": {
        "baseColorFactor": [
          0.22034098333120528,
          0.0565200240622853,
          0.011240099312028408,
          1.0
        ],
        "metallicFactor": 0.0,
        "roughnessFactor": 0.9656428734756535
      }
    },
    {
      "doubleSided": true,
      "name": "handle",
      "pbrMetallicRoughness": {
        "baseColorFactor": [
          0.438543,
          0.438543,
          0.438543,
          1.0
        ],
        "metallicFactor": 0.6218877113620196,
        "roughnessFactor": 0.901938804094331
      }
    },
    {
      "doubleSided": true,
      "name": "stand",
      "pbrMetallicRoughness": {
        "baseColorFactor": [
          0.178857,
          0.0676597,
          0.000764322,
          1.0
        ],
        "metallicFactor": 0.0,
        "roughnessFactor": 0.9806646308255161
      }
    }
  ],
  "meshes": [
    {
      "name": "Cube_wood_0",
      "primitives": [
        {
          "attributes": {
            "NORMAL": 1,
            "POSITION": 0,
            "TEXCOORD_0": 2
          },
          "indices": 3,
          "material": 0,
          "mode": 4
        }
      ]
    },
    {
      "name": "Circle_handle_0",
      "primitives": [
        {
          "attributes": {
            "NORMAL": 5,
            "POSITION": 4,
            "TEXCOORD_0": 6
          },
          "indices": 7,
          "material": 1,
          "mode": 4
        }
      ]
    },
    {
      "name": "Circle.002_stand_0",
      "primitives": [
        {
          "attributes": {
            "NORMAL": 9,
            "POSITION": 8,
            "TEXCOORD_0": 10
          },
          "indices": 11,
          "material": 2,
          "mode": 4
        }
      ]
    }
  ],
  "nodes": [
    {
      "children": [
        1
      ],
      "matrix": [
        1.0,
        0.0,
        0.0,
        0.0,
        0.0,
        2.220446049250313e-16,
        -1.0,
        0.0,
        0.0,
        1.0,
        2.220446049250313e-16,
        0.0,
        0.0,
        0.0,
        0.0,
        1.0
      ],
      "name": "Sketchfab_model"
    },
    {
      "children": [
        2
      ],
      "matrix": [
        1.0,
        0.0,
        0.0,
        0.0,
        0.0,
        0.0,
        1.0,
        0.0,
        0.0,
        -1.0,
        0.0,
        0.0,
        0.0,
        0.0,
        0.0,
        1.0
      ],
      "name": "8f7c3d64ea814366b81391c6f56fce1c.fbx"
    },
    {
      "children": [
        3,
        5,
        7
      ],
      "name": "RootNode"
    },
    {
      "children": [
        4
      ],
      "matrix": [
        100.0,
        0.0,
        0.0,
        0.0,
        0.0,
        -1.629206793918314e-05,
        -99.99999999999868,
        0.0,
        0.0,
        99.99999999999868,
        -1.629206793918314e-05,
        0.0,
        0.0,
        0.0,
        0.0,
        1.0
      ],
      "name": "Cube"
    },
    {
      "mesh": 0,
      "name": "Cube_wood_0"
    },
    {
      "children": [
        6
      ],
      "matrix": [
        4.092655181884766,
        0.0,
        0.0,
        0.0,
        -0.0,
        -6.667781627491654e-07,
        -4.0926551818847114,
        0.0,
        0.0,
        4.0926551818847114,
        -6.667781627491654e-07,
        0.0,
        -189.89283752441406,
        1.463647549826419e-06,
        97.11190795898438,
        1.0
      ],
      "name": "Circle"
    },
    {
      "mesh": 1,
      "name": "Circle_handle_0"
    },
    {
      "children": [
        8
      ],
      "matrix": [
        100.0,
        0.0,
        0.0,
        0.0,
        0.0,
        -1.629206793918314e-05,
        -99.99999999999868,
        0.0,
        0.0,
        99.99999999999868,
        -1.629206793918314e-05,
        0.0,
        0.0,
        0.0,
        0.0,
        1.0
      ],
      "name": "Circle.002"
    },
    {
      "mesh": 2,
      "name": "Circle.002_stand_0"
    }
  ],
  "scene": 0,
  "scenes": [
    {
      "name": "Sketchfab_Scene",
      "nodes": [
        0
      ]
    }
  ]
}
