{
	"asset":{
		"generator":"Khronos glTF Blender I/O v4.5.47",
		"version":"2.0"
	},
	"scene":0,
	"scenes":[
		{
			"name":"Scene",
			"nodes":[
				12,
				18,
				22,
				24,
				31,
				35,
				37,
				38,
				39
			]
		}
	],
	"nodes":[
		{
			"name":"Cube.001_9",
			"rotation":[
				0.36712875962257385,
				0,
				0,
				0.9301702380180359
			],
			"scale":[
				3.9775867462158203,
				0.7209048867225647,
				2.134495973587036
			],
			"translation":[
				-0.15478515625,
				8.848472595214844,
				-14.143845558166504
			]
		},
		{
			"name":"Cube.002_8",
			"rotation":[
				0.2876430153846741,
				0,
				0,
				0.9577376842498779
			],
			"scale":[
				1.4843902587890625,
				0.6225307583808899,
				1.8432244062423706
			],
			"translation":[
				3.771697998046875,
				8.35534381866455,
				-10.535309791564941
			]
		},
		{
			"name":"Cube_7",
			"rotation":[
				0.2876430153846741,
				0,
				0,
				0.9577376842498779
			],
			"scale":[
				1.4843902587890625,
				0.6225307583808899,
				1.8432244062423706
			],
			"translation":[
				-4.122589111328125,
				8.35534381866455,
				-10.535309791564941
			]
		},
		{
			"name":"Plane.001_1",
			"translation":[
				-3.0517578125e-05,
				0.9999998807907104,
				0
			]
		},
		{
			"name":"Plane.002_2",
			"translation":[
				-3.0517578125e-05,
				0.9999998807907104,
				0
			]
		},
		{
			"name":"Plane.003_3",
			"rotation":[
				0,
				-0.7071068286895752,
				0,
				0.7071067094802856
			],
			"translation":[
				-3.0517578125e-05,
				0.9999998807907104,
				0
			]
		},
		{
			"name":"Plane.004_4",
			"translation":[
				-3.0517578125e-05,
				0,
				-17
			]
		},
		{
			"name":"Plane.005_5",
			"translation":[
				-3.0517578125e-05,
				0,
				-17
			]
		},
		{
			"name":"Plane.007_6",
			"translation":[
				-3.0517578125e-05,
				0,
				14.999996185302734
			]
		},
		{
			"mesh":0,
			"name":"Object_22",
			"rotation":[
				-1,
				0,
				0,
				2.003796366572934e-14
			],
			"scale":[
				0.8864956498146057,
				0.8864956498146057,
				0.8864956498146057
			],
			"translation":[
				10.28204345703125,
				12.459534645080566,
				-19.805253982543945
			]
		},
		{
			"children":[
				0,
				1,
				2,
				3,
				4,
				5,
				6,
				7,
				8,
				9
			],
			"name":"GLTF_SceneRootNode",
			"rotation":[
				0.70710688829422,
				0,
				0,
				0.7071066498756409
			],
			"translation":[
				0,
				3.814697265625e-06,
				0
			]
		},
		{
			"children":[
				10
			],
			"name":"root",
			"translation":[
				0,
				3.814697265625e-06,
				0
			]
		},
		{
			"children":[
				11
			],
			"name":"Sketchfab_model",
			"rotation":[
				-0.5,
				0.5,
				0.5000000596046448,
				0.5
			],
			"scale":[
				0.16267891228199005,
				0.16267891228199005,
				0.16267891228199005
			],
			"translation":[
				-10.12208080291748,
				0.24249234795570374,
				82.5905532836914
			]
		},
		{
			"name":"Cube.009",
			"rotation":[
				-0.70710688829422,
				0,
				0,
				0.7071066498756409
			],
			"scale":[
				100,
				77.0568618774414,
				99.99999237060547
			],
			"translation":[
				0.0009765625,
				0,
				0.00010401481995359063
			]
		},
		{
			"name":"Sphere",
			"rotation":[
				-0.70710688829422,
				0,
				0,
				0.7071066498756409
			],
			"scale":[
				12.504439353942871,
				12.504437446594238,
				12.504437446594238
			],
			"translation":[
				0.0009765625,
				47.253448486328125,
				89.1581802368164
			]
		},
		{
			"name":"Sphere.001",
			"rotation":[
				-0.70710688829422,
				0,
				0,
				0.7071066498756409
			],
			"scale":[
				12.504439353942871,
				12.504437446594238,
				12.504437446594238
			],
			"translation":[
				0.0009765625,
				-48.456687927246094,
				89.15818786621094
			]
		},
		{
			"children":[
				13,
				14,
				15
			],
			"name":"RootNode",
			"translation":[
				0.0009765625,
				0,
				0.00010401481995359063
			]
		},
		{
			"children":[
				16
			],
			"name":"619f83a778b14ee0a1dffbaf06000b5f.fbx",
			"rotation":[
				0.70710688829422,
				0,
				0,
				0.7071066498756409
			],
			"scale":[
				0.010000000707805157,
				0.010000000707805157,
				0.010000000707805157
			]
		},
		{
			"children":[
				17
			],
			"name":"Sketchfab_model.001",
			"rotation":[
				-0.5,
				0.5,
				0.5,
				0.5
			],
			"scale":[
				0.7089706659317017,
				0.7089706659317017,
				0.7089706659317017
			],
			"translation":[
				-11.994122505187988,
				0.9527332782745361,
				79.85649108886719
			]
		},
		{
			"name":"LegLeftBack_3.001",
			"rotation":[
				0,
				0.713664710521698,
				0,
				0.700487494468689
			],
			"translation":[
				10.658163070678711,
				0.05000043660402298,
				-1.7030659914016724
			]
		},
		{
			"children":[
				19
			],
			"name":"GLTF_SceneRootNode.002",
			"rotation":[
				0.70710688829422,
				0,
				0,
				0.7071066498756409
			],
			"translation":[
				0,
				3.48215644407901e-06,
				0
			]
		},
		{
			"children":[
				20
			],
			"name":"root.002",
			"translation":[
				0,
				3.48215644407901e-06,
				0
			]
		},
		{
			"children":[
				21
			],
			"name":"Sketchfab_model.007",
			"rotation":[
				-0.007614164613187313,
				0.7070809006690979,
				0.7070608735084534,
				0.006597696803510189
			],
			"scale":[
				2.128002882003784,
				2.128002882003784,
				2.128002643585205
			],
			"translation":[
				26.61521339416504,
				0.2006162405014038,
				68.85672760009766
			]
		},
		{
			"name":"333769425738431d88ac834340a03974.obj.cleaner.materialmerger.gle"
		},
		{
			"children":[
				23
			],
			"name":"Sketchfab_model.011",
			"rotation":[
				-0.6610723733901978,
				-0.25096479058265686,
				-0.25096479058265686,
				0.661072313785553
			],
			"scale":[
				2.355929136276245,
				2.355929136276245,
				2.355929136276245
			],
			"translation":[
				-3.0778324604034424,
				0,
				72.35430908203125
			]
		},
		{
			"name":"Object_78",
			"translation":[
				0.0014795660972595215,
				0.007228500209748745,
				0.0048828125
			]
		},
		{
			"children":[
				25
			],
			"name":"Object_77",
			"rotation":[
				0.70710688829422,
				0,
				0,
				0.7071066498756409
			],
			"translation":[
				0.0026893657632172108,
				0,
				0.0015013813972473145
			]
		},
		{
			"children":[
				26
			],
			"name":"Lensflare_Source",
			"rotation":[
				0.70710688829422,
				0,
				0,
				0.7071066498756409
			],
			"translation":[
				-0.004210923798382282,
				-0.006450315937399864,
				0.0068359375
			]
		},
		{
			"name":"Object_81",
			"translation":[
				0.0014795660972595215,
				0.007228500209748745,
				0.0048828125
			]
		},
		{
			"children":[
				28
			],
			"name":"Object_80",
			"rotation":[
				0.70710688829422,
				0,
				0,
				0.7071066498756409
			],
			"translation":[
				0.0026893657632172108,
				0,
				0.0015013813972473145
			]
		},
		{
			"children":[
				29
			],
			"name":"Sun_light",
			"rotation":[
				0.70710688829422,
				0,
				0,
				0.7071066498756409
			],
			"translation":[
				-0.004210923798382282,
				-0.006450315937399864,
				0.0068359375
			]
		},
		{
			"children":[
				27,
				30
			],
			"name":"Sun",
			"rotation":[
				-0.4335288405418396,
				0.18333786725997925,
				0.09056440740823746,
				0.8776320815086365
			],
			"translation":[
				36680.2890625,
				119738.5390625,
				83962.3984375
			]
		},
		{
			"name":"Object_85",
			"translation":[
				-9.026826592162251e-05,
				0.00023356208112090826,
				-0.0003662109375
			]
		},
		{
			"children":[
				32
			],
			"name":"Object_84",
			"rotation":[
				0.70710688829422,
				0,
				0,
				0.7071066498756409
			],
			"translation":[
				6.893365934956819e-05,
				9.1552734375e-05,
				-7.167021976783872e-06
			]
		},
		{
			"children":[
				33
			],
			"name":"Moon_Light",
			"rotation":[
				0.70710688829422,
				0,
				0,
				0.7071066498756409
			],
			"translation":[
				-0.00016776041593402624,
				-0.00016678826068527997,
				0.000244140625
			]
		},
		{
			"children":[
				34
			],
			"name":"Moon",
			"rotation":[
				0.1879037767648697,
				-0.7935436367988586,
				0.30200356245040894,
				0.49373531341552734
			],
			"translation":[
				-2669.551513671875,
				-2648.635498046875,
				-1314.7999267578125
			]
		},
		{
			"name":"Drawer_4",
			"translation":[
				0,
				0,
				-5.001953125
			]
		},
		{
			"children":[
				36
			],
			"name":"Drawer_Large",
			"scale":[
				0.002563037443906069,
				0.002563037909567356,
				0.002563037909567356
			],
			"translation":[
				0,
				0.12815189361572266,
				71.89237976074219
			]
		},
		{
			"name":"Leg_Back_Left",
			"rotation":[
				0,
				0.7071068286895752,
				0,
				0.7071067094802856
			],
			"scale":[
				0.0025630381423979998,
				0.002563037909567356,
				0.0025630376767367125
			],
			"translation":[
				0.46134674549102783,
				0.10252151638269424,
				71.89237213134766
			]
		},
		{
			"name":"Leg_Front_Left_2",
			"scale":[
				0.002563037443906069,
				0.002563037909567356,
				0.002563037909567356
			],
			"translation":[
				-0.46134674549102783,
				0.10252151638269424,
				71.89237213134766
			]
		}
	],
	"materials":[
		{
			"doubleSided":true,
			"name":"11 Bed",
			"pbrMetallicRoughness":{
				"baseColorTexture":{
					"index":0
				},
				"metallicFactor":0,
				"roughnessFactor":0.5
			}
		}
	],
	"meshes":[
		{
			"name":"Object_9",
			"primitives":[
				{
					"attributes":{
						"POSITION":0,
						"NORMAL":1,
						"TEXCOORD_0":2
					},
					"indices":3,
					"material":0
				}
			]
		}
	],
	"textures":[
		{
			"sampler":0,
			"source":0
		}
	],
	"images":[
		{
			"mimeType":"image/png",
			"name":"Material_baseColor",
			"uri":"Material_baseColor.png"
		}
	],
	"accessors":[
		{
			"bufferView":0,
			"componentType":5126,
			"count":456,
			"max":[
				11,
				14.000000953674316,
				2
			],
			"min":[
				-11.000029563903809,
				0,
				-34.000003814697266
			],
			"type":"VEC3"
		},
		{
			"bufferView":1,
			"componentType":5126,
			"count":456,
			"type":"VEC3"
		},
		{
			"bufferView":2,
			"componentType":5126,
			"count":456,
			"type":"VEC2"
		},
		{
			"bufferView":3,
			"componentType":5123,
			"count":708,
			"type":"SCALAR"
		}
	],
	"bufferViews":[
		{
			"buffer":0,
			"byteLength":5472,
			"byteOffset":0,
			"target":34962
		},
		{
			"buffer":0,
			"byteLength":5472,
			"byteOffset":5472,
			"target":34962
		},
		{
			"buffer":0,
			"byteLength":3648,
			"byteOffset":10944,
			"target":34962
		},
		{
			"buffer":0,
			"byteLength":1416,
			"byteOffset":14592,
			"target":34963
		}
	],
	"samplers":[
		{
			"magFilter":9729,
			"minFilter":9987
		}
	],
	"buffers":[
		{
			"byteLength":16008,
			"uri":"houseEnv.bin"
		}
	]
}
