{
  "accessors": [
    {
      "bufferView": 2,
      "componentType": 5126,
      "count": 150,
      "max": [
        0.20966799557209015,
        0.02562200091779232,
        0.7839779853820801
      ],
      "min": [
        -0.20966799557209015,
        -0.45663100481033325,
        0.425588995218277
      ],
      "type": "VEC3"
    },
    {
      "bufferView": 2,
      "byteOffset": 1800,
      "componentType": 5126,
      "count": 150,
      "max": [
        0.9260236024856567,
        0.9934479594230652,
        0.9999231100082397
      ],
      "min": [
        -0.9260236024856567,
        -0.9934548139572144,
        -0.9999244213104248
      ],
      "type": "VEC3"
    },
    {
      "bufferView": 1,
      "componentType": 5126,
      "count": 150,
      "max": [
        0.5,
        1.0
      ],
      "min": [
        0.0,
        0.0
      ],
      "type": "VEC2"
    },
    {
      "bufferView": 0,
      "componentType": 5125,
      "count": 888,
      "type": "SCALAR"
    },
    {
      "bufferView": 2,
      "byteOffset": 3600,
      "componentType": 5126,
      "count": 169,
      "max": [
        0.22524400055408478,
        -0.034077998250722885,
        0.42364001274108887
      ],
      "min": [
        -0.22524400055408478,
        -0.5029249787330627,
        0.0007469999836757779
      ],
      "type": "VEC3"
    },
    {
      "bufferView": 2,
      "byteOffset": 5628,
      "componentType": 5126,
      "count": 169,
      "max": [
        0.985403299331665,
        0.9812960028648376,
        0.8159488439559937
      ],
      "min": [
        -0.985403299331665,
        -0.9886207580566406,
        -0.9727305173873901
      ],
      "type": "VEC3"
    },
    {
      "bufferView": 1,
      "byteOffset": 1200,
      "componentType": 5126,
      "count": 169,
      "max": [
        1.0,
        1.0
      ],
      "min": [
        0.0,
        0.009999999776482582
      ],
      "type": "VEC2"
    },
    {
      "bufferView": 0,
      "byteOffset": 3552,
      "componentType": 5125,
      "count": 528,
      "type": "SCALAR"
    }
  ],
  "asset": {
    "extras": {
      "author": "Jeremy E. Grayson (https://sketchfab.com/JeremyGrayson)",
      "license": "CC-BY-4.0 (http://creativecommons.org/licenses/by/4.0/)",
      "source": "https://sketchfab.com/3d-models/low-poly-chair-7344e73dbb5b456e84f15b0dacd0f907",
      "title": "Low Poly Chair"
    },
    "generator": "Sketchfab-12.63.0",
    "version": "2.0"
  },
  "bufferViews": [
    {
      "buffer": 0,
      "byteLength": 5664,
      "name": "floatBufferViews",
      "target": 34963
    },
    {
      "buffer": 0,
      "byteLength": 2552,
      "byteOffset": 5664,
      "byteStride": 8,
      "name": "floatBufferViews",
      "target": 34962
    },
    {
      "buffer": 0,
      "byteLength": 7656,
      "byteOffset": 8216,
      "byteStride": 12,
      "name": "floatBufferViews",
      "target": 34962
    }
  ],
  "buffers": [
    {
      "byteLength": 15872,
      "uri": "scene.bin"
    }
  ],
  "materials": [
    {
      "doubleSided": true,
      "name": "Black_Chair_545",
      "pbrMetallicRoughness": {
        "baseColorFactor": [
          0.03564081245896186,
          0.03564081245896186,
          0.03564081245896186,
          1.0
        ],
        "roughnessFactor": 0.6
      }
    },
    {
      "doubleSided": true,
      "name": "wood_Chair",
      "pbrMetallicRoughness": {
        "baseColorFactor": [
          0.9117889721365602,
          0.6234634644761455,
          0.19607199594144625,
          1.0
        ],
        "metallicFactor": 0.0,
        "roughnessFactor": 0.6
      }
    }
  ],
  "meshes": [
    {
      "name": "Object_0",
      "primitives": [
        {
          "attributes": {
            "NORMAL": 1,
            "POSITION": 0,
            "TEXCOORD_0": 2
          },
          "indices": 3,
          "material": 0,
          "mode": 4
        }
      ]
    },
    {
      "name": "Object_1",
      "primitives": [
        {
          "attributes": {
            "NORMAL": 5,
            "POSITION": 4,
            "TEXCOORD_0": 6
          },
          "indices": 7,
          "material": 1,
          "mode": 4
        }
      ]
    }
  ],
  "nodes": [
    {
      "children": [
        1
      ],
      "matrix": [
        1.0,
        0.0,
        0.0,
        0.0,
        0.0,
        2.220446049250313e-16,
        -1.0,
        0.0,
        0.0,
        1.0,
        2.220446049250313e-16,
        0.0,
        0.0,
        0.0,
        0.0,
        1.0
      ],
      "name": "Sketchfab_model"
    },
    {
      "children": [
        2,
        3
      ],
      "name": "333769425738431d88ac834340a03974.obj.cleaner.materialmerger.gles"
    },
    {
      "mesh": 0,
      "name": "Object_2"
    },
    {
      "mesh": 1,
      "name": "Object_3"
    }
  ],
  "scene": 0,
  "scenes": [
    {
      "name": "Sketchfab_Scene",
      "nodes": [
        0
      ]
    }
  ]
}
