{
  "accessors": [
    {
      "bufferView": 2,
      "componentType": 5126,
      "count": 315,
      "max": [
        2.04245924949646,
        4.054691314697266,
        2.042459487915039
      ],
      "min": [
        -2.042459726333618,
        0.0,
        -2.0424602031707764
      ],
      "type": "VEC3"
    },
    {
      "bufferView": 2,
      "byteOffset": 3780,
      "componentType": 5126,
      "count": 315,
      "max": [
        0.9999694228172302,
        1.0,
        0.9999694228172302
      ],
      "min": [
        -0.999969482421875,
        -1.0,
        -0.999969482421875
      ],
      "type": "VEC3"
    },
    {
      "bufferView": 1,
      "componentType": 5126,
      "count": 315,
      "max": [
        0.9641442894935608,
        0.9078543186187744
      ],
      "min": [
        0.007291493006050587,
        1.8878849004977383e-05
      ],
      "type": "VEC2"
    },
    {
      "bufferView": 0,
      "componentType": 5125,
      "count": 1080,
      "type": "SCALAR"
    },
    {
      "bufferView": 2,
      "byteOffset": 7560,
      "componentType": 5126,
      "count": 61,
      "max": [
        1.7498834133148193,
        3.8091535568237305,
        1.7498834133148193
      ],
      "min": [
        -1.7498834133148193,
        3.554001808166504,
        -1.7498834133148193
      ],
      "type": "VEC3"
    },
    {
      "bufferView": 2,
      "byteOffset": 8292,
      "componentType": 5126,
      "count": 61,
      "max": [
        0.2862395644187927,
        1.0,
        0.3074290156364441
      ],
      "min": [
        -0.2853121757507324,
        0.9515710473060608,
        -0.18511612713336945
      ],
      "type": "VEC3"
    },
    {
      "bufferView": 1,
      "byteOffset": 2520,
      "componentType": 5126,
      "count": 61,
      "max": [
        0.8795321583747864,
        0.2673860788345337
      ],
      "min": [
        0.6121623516082764,
        1.6223202692344785e-05
      ],
      "type": "VEC2"
    },
    {
      "bufferView": 0,
      "byteOffset": 4320,
      "componentType": 5125,
      "count": 288,
      "type": "SCALAR"
    },
    {
      "bufferView": 2,
      "byteOffset": 9024,
      "componentType": 5126,
      "count": 4428,
      "max": [
        1.6846803426742554,
        4.573760509490967,
        1.532065987586975
      ],
      "min": [
        -1.8406798839569092,
        3.629986047744751,
        -1.565256118774414
      ],
      "type": "VEC3"
    },
    {
      "bufferView": 2,
      "byteOffset": 62160,
      "componentType": 5126,
      "count": 4428,
      "max": [
        0.9998680949211121,
        0.999998152256012,
        0.9999041557312012
      ],
      "min": [
        -0.9997240900993347,
        -0.9999889135360718,
        -0.9998886585235596
      ],
      "type": "VEC3"
    },
    {
      "bufferView": 1,
      "byteOffset": 3008,
      "componentType": 5126,
      "count": 4428,
      "max": [
        0.9934799075126648,
        0.12151864916086197
      ],
      "min": [
        0.8842166662216187,
        0.00972720980644226
      ],
      "type": "VEC2"
    },
    {
      "bufferView": 0,
      "byteOffset": 5472,
      "componentType": 5125,
      "count": 17280,
      "type": "SCALAR"
    }
  ],
  "asset": {
    "extras": {
      "author": "StaticBuffering (https://sketchfab.com/StaticBuffering)",
      "license": "CC-BY-4.0 (http://creativecommons.org/licenses/by/4.0/)",
      "source": "https://sketchfab.com/3d-models/pot-plant-with-succulent-e1e635de45704afe84efdb7be2e1adaa",
      "title": "Pot Plant with Succulent"
    },
    "generator": "Sketchfab-14.8.0",
    "version": "2.0"
  },
  "bufferViews": [
    {
      "buffer": 0,
      "byteLength": 74592,
      "name": "floatBufferViews",
      "target": 34963
    },
    {
      "buffer": 0,
      "byteLength": 38432,
      "byteOffset": 74592,
      "byteStride": 8,
      "name": "floatBufferViews",
      "target": 34962
    },
    {
      "buffer": 0,
      "byteLength": 115296,
      "byteOffset": 113024,
      "byteStride": 12,
      "name": "floatBufferViews",
      "target": 34962
    }
  ],
  "buffers": [
    {
      "byteLength": 228320,
      "uri": "cene.bin"
    }
  ],
  "materials": [
    {
      "doubleSided": true,
      "name": "PotBody",
      "pbrMetallicRoughness": {
        "baseColorFactor": [
          1.0,
          0.936,
          0.962165,
          1.0
        ],
        "metallicFactor": 0.0,
        "roughnessFactor": 0.9207483816249483
      }
    },
    {
      "doubleSided": true,
      "name": "Soil",
      "pbrMetallicRoughness": {
        "baseColorFactor": [
          0.3835,
          0.1633,
          0.0902,
          1.0
        ],
        "metallicFactor": 0.0,
        "roughnessFactor": 0.6
      }
    },
    {
      "doubleSided": true,
      "name": "Leaf",
      "pbrMetallicRoughness": {
        "baseColorFactor": [
          0.40331,
          0.588,
          0.29988,
          1.0
        ],
        "metallicFactor": 0.0,
        "roughnessFactor": 0.6
      }
    }
  ],
  "meshes": [
    {
      "name": "pot_PotBody_0",
      "primitives": [
        {
          "attributes": {
            "NORMAL": 1,
            "POSITION": 0,
            "TEXCOORD_0": 2
          },
          "indices": 3,
          "material": 0,
          "mode": 4
        }
      ]
    },
    {
      "name": "dirt_Soil_0",
      "primitives": [
        {
          "attributes": {
            "NORMAL": 5,
            "POSITION": 4,
            "TEXCOORD_0": 6
          },
          "indices": 7,
          "material": 1,
          "mode": 4
        }
      ]
    },
    {
      "name": "Succulent_Plant_Leaf_0",
      "primitives": [
        {
          "attributes": {
            "NORMAL": 9,
            "POSITION": 8,
            "TEXCOORD_0": 10
          },
          "indices": 11,
          "material": 2,
          "mode": 4
        }
      ]
    }
  ],
  "nodes": [
    {
      "children": [
        1
      ],
      "matrix": [
        1.0,
        0.0,
        0.0,
        0.0,
        0.0,
        2.220446049250313e-16,
        -1.0,
        0.0,
        0.0,
        1.0,
        2.220446049250313e-16,
        0.0,
        0.0,
        0.0,
        0.0,
        1.0
      ],
      "name": "Sketchfab_model"
    },
    {
      "children": [
        2
      ],
      "matrix": [
        0.009999999776482582,
        0.0,
        0.0,
        0.0,
        0.0,
        0.0,
        0.009999999776482582,
        0.0,
        0.0,
        -0.009999999776482582,
        0.0,
        0.0,
        0.0,
        0.0,
        0.0,
        1.0
      ],
      "name": "ad5ec094d4d344709114cda42623a9ad.fbx"
    },
    {
      "children": [
        3
      ],
      "name": "RootNode"
    },
    {
      "children": [
        4,
        6
      ],
      "name": "Pot_Type_2"
    },
    {
      "children": [
        5
      ],
      "name": "pot"
    },
    {
      "mesh": 0,
      "name": "pot_PotBody_0"
    },
    {
      "children": [
        7,
        8
      ],
      "name": "dirt"
    },
    {
      "mesh": 1,
      "name": "dirt_Soil_0"
    },
    {
      "children": [
        9
      ],
      "name": "Succulent_Plant"
    },
    {
      "mesh": 2,
      "name": "Succulent_Plant_Leaf_0"
    }
  ],
  "scene": 0,
  "scenes": [
    {
      "name": "Sketchfab_Scene",
      "nodes": [
        0
      ]
    }
  ]
}
